<svg xmlns="http://www.w3.org/2000/svg" xmlns:xlink="http://www.w3.org/1999/xlink" width="500" zoomAndPan="magnify" viewBox="0 0 375 374.999991" height="500" preserveAspectRatio="xMidYMid meet" version="1.0"><defs><clipPath id="e45893055b"><path d="M 19 57 L 362.769531 57 L 362.769531 290 L 19 290 Z M 19 57 " clip-rule="nonzero"/></clipPath><clipPath id="fb83af9864"><path d="M 274 155 L 357 155 L 357 294.75 L 274 294.75 Z M 274 155 " clip-rule="nonzero"/></clipPath><clipPath id="641e550347"><path d="M 12.519531 74 L 70 74 L 70 202 L 12.519531 202 Z M 12.519531 74 " clip-rule="nonzero"/></clipPath></defs><g clip-path="url(#e45893055b)"><path fill="#f4e6d4" d="M 74.199219 69.125 C 74.199219 69.125 99.808594 37.5 166.5625 77.882812 C 166.5625 77.882812 198.386719 98.410156 209.019531 118.304688 C 209.019531 118.304688 252.585938 101.941406 298.703125 107.722656 C 298.703125 107.722656 341.714844 118.304688 350.652344 141.683594 L 362.691406 167.78125 L 286.367188 289.054688 C 286.367188 289.054688 223.742188 244.550781 161.414062 242.210938 C 161.414062 242.210938 115.082031 196.050781 20.378906 209.4375 L 19.402344 195.582031 C 19.402344 195.582031 51.992188 106.53125 74.199219 69.125 Z M 74.199219 69.125 " fill-opacity="1" fill-rule="nonzero"/></g><path fill="#603813" d="M 169.667969 243.359375 C 168.179688 241.234375 166.179688 241.363281 164.222656 241.703125 C 158.777344 242.636719 154.140625 242.210938 149.925781 237.621094 C 141.25 228.183594 130.613281 221.085938 119.339844 215.21875 C 115.167969 213.050781 110.488281 211.222656 105.46875 211.523438 C 111.894531 214.074219 118.230469 216.75 124.273438 220.066406 C 130.058594 223.296875 135.25 227.335938 140.3125 231.5 C 142.398438 233.242188 144.226562 235.324219 146.863281 236.347656 C 148.4375 236.941406 149.628906 238.171875 149.417969 239.660156 C 149.078125 242 145.929688 241.148438 144.738281 243.019531 C 144.183594 243.871094 142.738281 243.316406 141.972656 242.339844 C 136.1875 234.601562 128.144531 229.628906 119.378906 226.355469 C 111.636719 223.464844 103.300781 222.105469 95.214844 220.152344 C 86.621094 218.109375 77.984375 216.75 69.222656 215.601562 C 63.691406 214.878906 58.671875 216.835938 53.4375 215.984375 C 52.074219 215.773438 49.820312 216.539062 49.695312 214.371094 C 49.523438 212.117188 51.820312 212.628906 53.140625 212.457031 C 69.09375 210.121094 84.28125 213.773438 99.425781 218.152344 C 105.511719 219.894531 111.851562 220.832031 119.253906 222.402344 C 113.253906 217.386719 107.085938 216.027344 101 214.710938 C 91.683594 212.628906 82.15625 211.945312 72.796875 209.90625 C 66.328125 208.503906 59.648438 209.992188 53.097656 210.757812 C 50.628906 211.054688 48.246094 210.203125 45.863281 210.714844 C 44.757812 210.96875 43.824219 210.628906 43.652344 209.738281 C 43.480469 208.675781 44.628906 208.121094 45.480469 208.035156 C 54.585938 207.015625 63.691406 204.296875 72.878906 206.546875 C 75.644531 207.230469 78.324219 207.398438 81.007812 207.355469 C 85.769531 207.230469 90.023438 210.417969 95.257812 209.183594 C 91.257812 205.570312 86.070312 205.867188 81.773438 205.230469 C 68.753906 203.316406 55.523438 203.105469 42.460938 205.785156 C 39.78125 206.335938 37.101562 207.144531 34.460938 207.953125 C 32.71875 208.503906 31.015625 208.84375 30.082031 206.929688 C 29.144531 204.933594 31.101562 204.296875 32.292969 203.53125 C 35.613281 201.40625 39.609375 201.40625 43.3125 200.46875 C 51.992188 198.300781 60.925781 198.558594 69.6875 198.640625 C 78.75 198.726562 87.769531 201.066406 96.664062 203.277344 C 101.511719 204.464844 106.40625 205.527344 111.210938 206.890625 C 116.742188 208.460938 121.847656 211.054688 126.742188 213.988281 C 135.378906 219.089844 142.78125 225.890625 150.652344 232.050781 C 151.117188 232.433594 151.5 232.902344 151.882812 233.371094 C 155.375 237.492188 156.480469 237.367188 158.519531 232.050781 C 162.605469 221.554688 166.265625 210.882812 170.644531 200.511719 C 174.304688 191.800781 178.6875 183.382812 182.6875 174.839844 C 185.28125 169.269531 187.621094 163.574219 190.300781 158.046875 C 194.300781 149.761719 196.046875 140.621094 200.128906 132.332031 C 202.042969 128.421875 200.257812 125.445312 197.703125 121.621094 C 193.195312 114.863281 187.792969 109.125 182.304688 103.300781 C 178.132812 98.878906 173.242188 95.4375 168.050781 92.546875 C 160.222656 88.210938 153.289062 82.558594 145.289062 78.433594 C 137.460938 74.394531 129.507812 70.824219 121.082031 68.402344 C 115.550781 66.828125 109.9375 65.214844 104.234375 64.492188 C 99.894531 63.9375 95.257812 64.320312 90.960938 65.214844 C 86.917969 66.0625 86.878906 70.824219 85.769531 73.757812 C 80.878906 86.46875 74.792969 98.582031 69.007812 110.867188 C 63.5625 122.34375 59.011719 134.371094 53.011719 145.550781 C 46.714844 157.324219 41.140625 169.441406 35.269531 181.386719 C 32.335938 187.335938 30.507812 193.796875 28.292969 200.085938 C 27.699219 201.789062 27.613281 203.699219 26.167969 205.0625 C 25.445312 205.742188 26.039062 207.992188 23.953125 207.058594 C 22.464844 206.335938 22.125 204.59375 22.71875 203.488281 C 27.867188 193.753906 29.316406 182.617188 35.144531 173.011719 C 39.527344 165.785156 42.757812 157.625 46.289062 149.800781 C 49.4375 142.875 52.925781 136.074219 56.203125 129.1875 C 60.925781 119.367188 65.433594 109.421875 70.414062 99.730469 C 75.476562 89.910156 78.964844 79.410156 83.601562 69.464844 C 84.792969 66.957031 83.730469 62.960938 87.34375 62.070312 C 93.300781 60.625 99.386719 59.304688 105.554688 60.539062 C 111.167969 61.6875 116.871094 62.707031 122.359375 64.277344 C 130.058594 66.488281 137.589844 69.335938 144.566406 73.289062 C 155.160156 79.328125 165.542969 85.746094 175.496094 92.757812 C 182.6875 97.859375 188.558594 104.320312 194.554688 110.695312 C 197.195312 113.5 199.363281 116.390625 200.9375 119.921875 C 202.257812 122.8125 203.957031 124.085938 207.617188 121.324219 C 213.617188 116.730469 221.359375 116.265625 228.550781 115.203125 C 235.527344 114.140625 242.503906 113.203125 249.351562 111.417969 C 253.863281 110.230469 258.457031 111.589844 262.96875 111.207031 C 273.21875 110.398438 283.386719 110.441406 293.515625 113.160156 C 298.320312 114.4375 303.46875 113.925781 308.445312 115.246094 C 317.933594 117.835938 326.316406 121.621094 332.441406 129.824219 C 335.378906 133.734375 339.292969 137.050781 343.246094 140.027344 C 346.054688 142.109375 346.695312 144.445312 345.460938 147.125 C 342.183594 154.265625 338.652344 161.277344 334.824219 168.164062 C 331.421875 174.242188 328.613281 180.621094 325.335938 186.78125 C 318.574219 199.578125 311.808594 212.414062 305.085938 225.210938 C 296.960938 240.597656 287.300781 255.132812 280.539062 271.242188 C 279.175781 274.515625 276.625 277.324219 274.625 280.339844 C 273.984375 281.316406 273.007812 281.277344 272.15625 280.851562 C 266.539062 277.875 260.5 275.917969 255.140625 272.265625 C 249.011719 268.054688 242.164062 264.953125 235.484375 261.59375 C 226.210938 256.917969 216 255.304688 206.171875 252.414062 C 202.34375 251.265625 198.128906 251.308594 194.554688 249.269531 C 193.832031 248.886719 192.8125 248.84375 192.515625 249.609375 C 192.003906 250.839844 193.195312 250.96875 194.046875 251.222656 C 202.980469 253.945312 212.128906 256.152344 220.847656 259.511719 C 231.398438 263.59375 241.484375 268.863281 250.714844 275.496094 C 254.246094 278.042969 258.117188 280.128906 261.054688 283.441406 C 261.902344 284.421875 263.945312 285.058594 262.839844 286.546875 C 261.605469 288.203125 259.179688 287.3125 258.289062 286.25 C 255.648438 283.144531 252.246094 281.234375 249.011719 279.023438 C 238.886719 272.09375 228.167969 266.609375 216.59375 262.316406 C 207.660156 259.042969 198.34375 257.003906 189.449219 253.476562 C 183.28125 251.011719 176.304688 250.160156 169.496094 251.605469 C 165.882812 252.371094 164.777344 249.351562 162.820312 247.738281 C 161.753906 246.84375 162.394531 245.441406 163.925781 244.976562 C 165.753906 244.335938 167.667969 243.871094 169.667969 243.359375 Z M 221.570312 120.898438 C 215.914062 121.367188 212.042969 125.660156 207.105469 127.570312 C 206.46875 127.828125 205.746094 128.589844 205.660156 129.230469 C 204.851562 135.519531 201.234375 140.832031 199.535156 146.742188 C 197.152344 155.03125 192.980469 162.46875 189.832031 170.375 C 187.75 175.6875 184.941406 180.703125 182.644531 185.933594 C 179.242188 193.753906 175.921875 201.660156 172.773438 209.566406 C 169.667969 217.472656 166.773438 225.464844 163.882812 233.414062 C 163.285156 235.027344 163.242188 236.429688 165.667969 236.601562 C 170.09375 236.898438 174.519531 237.875 178.859375 237.535156 C 193.535156 236.429688 207.703125 238.554688 221.445312 243.613281 C 226.804688 245.570312 232.164062 247.652344 237.398438 250.03125 C 244.972656 253.476562 252.5 256.875 258.628906 262.914062 C 262.414062 266.652344 266.925781 269.714844 270.539062 273.710938 C 272.199219 275.535156 273.179688 274.347656 273.945312 272.773438 C 279.433594 261.511719 285.34375 250.5 291.640625 239.660156 C 296.320312 231.585938 300.535156 223.253906 304.875 215.007812 C 309.425781 206.335938 313.851562 197.664062 318.316406 188.949219 C 321.976562 181.808594 325.507812 174.625 329.25 167.570312 C 332.738281 160.9375 336.609375 154.476562 340.058594 147.847656 C 341.460938 145.167969 342.90625 142.363281 338.269531 140.535156 C 335.929688 139.644531 334.101562 137.136719 332.273438 135.179688 C 325.761719 128.167969 318.105469 122.257812 308.746094 120.855469 C 296.664062 119.070312 284.75 114.734375 272.199219 116.648438 C 270.414062 116.902344 268.496094 116.816406 266.710938 116.476562 C 262.117188 115.710938 257.605469 115.628906 253.011719 116.351562 C 242.589844 118.050781 232.082031 119.410156 221.570312 120.898438 Z M 252.5 265.886719 C 252.800781 265.121094 253.097656 264.398438 253.394531 263.636719 C 230.082031 251.222656 206.554688 239.617188 178.601562 242.890625 C 204.765625 245.441406 229.570312 252.625 252.5 265.886719 Z M 252.5 265.886719 " fill-opacity="1" fill-rule="nonzero"/><g clip-path="url(#fb83af9864)"><path fill="#603813" d="M 356.351562 165.785156 C 354.054688 172.035156 350.609375 176.113281 347.800781 180.40625 C 338.527344 194.6875 328.398438 208.417969 319.722656 223.042969 C 313.085938 234.261719 307.085938 245.953125 301.085938 257.558594 C 295.769531 267.886719 291.769531 278.9375 284.835938 288.417969 C 284.070312 289.480469 283.769531 290.96875 283.386719 292.285156 C 283.046875 293.601562 282.664062 294.75 281.007812 294.367188 C 279.347656 293.984375 279.472656 292.582031 279.730469 291.390625 C 280.070312 289.988281 280.625 288.628906 281.347656 286.503906 C 280.199219 287.4375 279.601562 287.863281 279.089844 288.332031 C 278.324219 289.054688 278.070312 290.753906 276.367188 289.351562 C 274.921875 288.160156 274.582031 286.929688 275.476562 285.355469 C 282.921875 272.265625 288.410156 258.152344 295.980469 245.1875 C 303.425781 232.433594 309.765625 219.089844 318.273438 206.929688 C 325.378906 196.773438 332.144531 186.273438 337.886719 175.222656 C 341.375 168.589844 345.929688 162.597656 350.097656 156.347656 C 350.609375 155.582031 351.160156 155.074219 351.882812 155.457031 C 353.203125 156.136719 353.289062 157.496094 352.609375 158.601562 C 350.566406 162.128906 348.351562 165.53125 346.269531 169.058594 C 340.78125 178.28125 335.335938 187.503906 329.847656 196.6875 C 328.441406 198.984375 326.867188 201.191406 325.292969 203.402344 C 324.828125 204.039062 324.0625 204.636719 324.785156 205.316406 C 325.804688 206.207031 326.1875 205.144531 326.824219 204.464844 C 330.144531 200.726562 331.929688 195.921875 334.824219 192.011719 C 338.527344 187.039062 342.183594 182.066406 345.671875 176.964844 C 348.4375 173.054688 351.332031 169.484375 356.351562 165.785156 Z M 304.703125 240.851562 C 299.808594 246.207031 294.917969 255.941406 295.511719 259.765625 C 298.578125 253.476562 301.640625 247.183594 304.703125 240.851562 Z M 323.421875 207.738281 C 319.890625 211.648438 317.804688 215.390625 317.550781 217.855469 C 322.65625 212.203125 322.742188 211.988281 323.421875 207.738281 Z M 323.421875 207.738281 " fill-opacity="1" fill-rule="nonzero"/></g><path fill="#603813" d="M 19.359375 201.320312 C 21.570312 191.160156 25.484375 182.871094 27.570312 174.074219 C 30.125 163.277344 34.589844 153.117188 39.058594 143.128906 C 45.523438 128.589844 53.226562 114.566406 61.054688 100.621094 C 65.691406 92.375 70.242188 83.917969 74.070312 75.160156 C 74.667969 73.757812 75.390625 72.398438 76.070312 71.039062 C 76.410156 70.359375 76.792969 69.59375 77.730469 69.847656 C 79.050781 70.230469 78.453125 71.207031 78.410156 72.101562 C 77.941406 78.519531 74.328125 83.664062 71.390625 89.058594 C 67.5625 96.074219 64.753906 103.554688 60.457031 110.355469 C 56.753906 116.308594 53.265625 122.429688 50.246094 128.890625 C 45.90625 138.113281 41.824219 147.464844 37.3125 156.605469 C 32.335938 166.71875 29.484375 177.558594 25.699219 188.058594 C 24.210938 192.222656 23.527344 196.941406 19.359375 201.320312 Z M 19.359375 201.320312 " fill-opacity="1" fill-rule="nonzero"/><g clip-path="url(#641e550347)"><path fill="#603813" d="M 69.476562 75.585938 C 68.328125 77.839844 67.648438 80.433594 66.03125 82.089844 C 61.988281 86.253906 60.585938 91.695312 57.777344 96.457031 C 54.03125 102.832031 51.4375 109.675781 48.542969 116.390625 C 43.992188 126.976562 39.355469 137.5625 35.101562 148.316406 C 32.25 155.582031 28.464844 162.46875 26.125 169.992188 C 23.101562 179.640625 19.613281 189.121094 16.296875 198.640625 C 15.914062 199.707031 15.742188 201.449219 14.085938 200.9375 C 12.59375 200.511719 12.765625 198.984375 13.316406 197.835938 C 15.871094 192.480469 16 186.1875 18.550781 181.085938 C 22.976562 172.160156 24.292969 162.257812 28.890625 153.457031 C 34.761719 142.234375 38.632812 129.996094 44.078125 118.601562 C 47.90625 110.570312 51.140625 102.152344 55.734375 94.332031 C 59.179688 88.378906 62.753906 82.429688 66.199219 76.4375 C 66.753906 75.457031 67.347656 74.097656 68.964844 74.523438 C 69.09375 74.566406 69.265625 75.203125 69.476562 75.585938 Z M 69.476562 75.585938 " fill-opacity="1" fill-rule="nonzero"/></g><path fill="#603813" d="M 101.34375 81.367188 C 104.703125 79.285156 108.617188 79.710938 111.808594 80.773438 C 121.507812 84.042969 131.082031 87.871094 139.589844 93.777344 C 147.332031 99.175781 155.457031 104.066406 162.648438 110.101562 C 168.691406 115.160156 174.347656 120.855469 178.6875 127.570312 C 179.582031 128.933594 180.472656 130.460938 179.582031 133.140625 C 158.480469 108.1875 133.675781 89.441406 101.34375 81.367188 Z M 101.34375 81.367188 " fill-opacity="1" fill-rule="nonzero"/><path fill="#603813" d="M 160.476562 180.363281 C 154.011719 176.710938 149.117188 172.074219 144.140625 167.65625 C 140.566406 164.507812 136.609375 162.640625 132.527344 160.8125 C 126.230469 157.964844 119.378906 156.222656 113.085938 153.542969 C 105.425781 150.3125 97.257812 148.570312 89.855469 144.828125 C 87.683594 143.722656 85.046875 144.0625 82.582031 144.402344 C 81.21875 144.574219 79.984375 144.277344 79.816406 142.746094 C 79.601562 140.960938 81.046875 141.003906 82.28125 140.832031 C 85.089844 140.410156 87.558594 141.34375 90.195312 142.277344 C 98.875 145.382812 107.894531 147.675781 116.445312 151.035156 C 129.632812 156.222656 143.332031 160.683594 153.757812 170.929688 C 156.308594 173.394531 160.054688 175.390625 160.476562 180.363281 Z M 160.476562 180.363281 " fill-opacity="1" fill-rule="nonzero"/><path fill="#603813" d="M 68.457031 157.113281 C 69.6875 153.796875 72.453125 153.796875 75.261719 154.136719 C 83.558594 155.160156 91.8125 156.390625 100.152344 157.242188 C 102.492188 157.496094 103.980469 158.941406 105.980469 159.621094 C 114.742188 162.597656 123.636719 165.359375 131.632812 170.25 C 139.460938 175.007812 147.628906 179.21875 153.757812 186.273438 C 154.308594 186.910156 156.097656 187.292969 154.820312 188.738281 C 153.671875 190.015625 152.734375 189.25 151.671875 188.398438 C 147.96875 185.550781 144.820312 182.109375 140.949219 179.472656 C 135.078125 175.476562 128.953125 172.074219 122.785156 168.632812 C 116.65625 165.230469 109.808594 163.957031 103.425781 161.277344 C 98.578125 159.238281 92.449219 157.921875 86.621094 158.175781 C 81.429688 158.390625 76.285156 156.6875 71.09375 157.921875 C 70.113281 158.132812 69.179688 157.921875 68.457031 157.113281 Z M 68.457031 157.113281 " fill-opacity="1" fill-rule="nonzero"/><path fill="#603813" d="M 92.40625 109.804688 C 111.894531 104.789062 159.96875 132.84375 166.179688 148.996094 C 162.902344 149.207031 161.117188 146.699219 159.710938 144.785156 C 154.566406 137.519531 146.394531 134.117188 139.84375 128.71875 C 129.378906 120.046875 116.359375 116.648438 103.851562 112.226562 C 100.40625 110.992188 96.492188 112.4375 92.40625 109.804688 Z M 92.40625 109.804688 " fill-opacity="1" fill-rule="nonzero"/><path fill="#603813" d="M 63.179688 173.011719 C 73.5625 172.074219 83.304688 174.796875 93.046875 177.773438 C 100.578125 180.066406 108.320312 181.640625 115.636719 184.617188 C 125.292969 188.527344 134.570312 193.03125 142.566406 199.789062 C 143.417969 200.511719 144.652344 201.789062 143.671875 202.894531 C 142.824219 203.871094 141.332031 203.234375 140.398438 202.382812 C 132.695312 195.199219 123.167969 191.417969 113.636719 187.25 C 106.449219 184.105469 98.746094 183.339844 91.726562 180.320312 C 86.453125 178.027344 80.878906 177.773438 75.476562 176.582031 C 71.6875 175.730469 67.5625 176.496094 63.5625 176.667969 C 62.203125 176.710938 61.011719 176.710938 60.796875 175.09375 C 60.585938 173.222656 61.902344 173.097656 63.179688 173.011719 Z M 63.179688 173.011719 " fill-opacity="1" fill-rule="nonzero"/><path fill="#603813" d="M 168.5625 139.941406 C 163.667969 132.800781 158.097656 127.273438 151.714844 122.769531 C 145.886719 118.601562 139.757812 114.820312 133.546875 111.25 C 123.253906 105.339844 112.488281 100.621094 100.40625 99.855469 C 99.640625 99.816406 98.746094 99.855469 98.660156 98.835938 C 98.578125 97.648438 99.511719 97.390625 100.492188 97.265625 C 106.449219 96.457031 111.808594 98.753906 117.421875 100.15625 C 129.335938 103.085938 138.566406 111.078125 148.949219 116.773438 C 156.265625 120.769531 161.710938 127.613281 167.117188 134.03125 C 168.136719 135.308594 169.539062 136.921875 168.5625 139.941406 Z M 168.5625 139.941406 " fill-opacity="1" fill-rule="nonzero"/><path fill="#603813" d="M 132.867188 145.425781 C 127.890625 145.507812 124.910156 142.492188 121.507812 141.003906 C 111.511719 136.667969 102.363281 130.335938 91.300781 128.507812 C 90.578125 128.378906 89.601562 128.378906 89.726562 127.359375 C 89.898438 126.042969 90.832031 126.59375 91.769531 126.59375 C 98.703125 126.464844 104.574219 129.101562 110.402344 132.542969 C 117.550781 136.796875 125.507812 139.726562 132.867188 145.425781 Z M 132.867188 145.425781 " fill-opacity="1" fill-rule="nonzero"/><path fill="#603813" d="M 237.78125 134.246094 C 243.90625 132.503906 249.394531 134.457031 254.96875 134.371094 C 271.050781 134.117188 286.28125 138.792969 301.257812 144.105469 C 306.789062 146.0625 310.746094 150.738281 315.507812 154.054688 C 315.976562 154.351562 316.828125 155.242188 316.019531 155.964844 C 315.296875 156.644531 314.191406 156.519531 313.46875 155.964844 C 311.679688 154.605469 309.976562 153.160156 308.277344 151.671875 C 301.851562 146.0625 294.363281 143.085938 285.898438 142.109375 C 278.070312 141.171875 270.753906 137.6875 262.796875 137.21875 C 254.5 136.753906 246.164062 135.734375 237.867188 137.347656 C 234.71875 137.941406 231.570312 138.453125 228.972656 140.792969 C 228.039062 141.640625 226.421875 141.980469 225.101562 142.023438 C 223.613281 142.066406 221.1875 143.339844 220.722656 141.089844 C 220.167969 138.410156 222.976562 139.429688 224.292969 138.921875 C 228.890625 137.050781 233.058594 133.988281 237.78125 134.246094 Z M 237.78125 134.246094 " fill-opacity="1" fill-rule="nonzero"/><path fill="#603813" d="M 193.066406 210.160156 C 201.574219 209.777344 209.234375 211.90625 217.0625 213.5625 C 222.507812 214.710938 228.125 215.898438 233.3125 217.515625 C 242.632812 220.320312 251.863281 223.765625 260.5 228.652344 C 264.199219 230.777344 267.816406 232.859375 270.839844 235.835938 C 272.070312 237.027344 273.519531 238.769531 271.988281 240.171875 C 270.113281 241.871094 269.433594 239.617188 268.371094 238.34375 C 264.542969 233.753906 259.265625 230.949219 254.03125 228.523438 C 245.609375 224.613281 236.84375 221.597656 227.65625 219.386719 C 219.957031 217.515625 212.128906 215.816406 204.46875 213.605469 C 201.066406 212.628906 197.152344 213.136719 193.492188 213.179688 C 192.046875 213.222656 190.726562 212.839844 190.640625 211.605469 C 190.601562 209.863281 192.34375 210.289062 193.066406 210.160156 Z M 193.066406 210.160156 " fill-opacity="1" fill-rule="nonzero"/><path fill="#603813" d="M 203.703125 194.859375 C 209.234375 195.539062 216 195.667969 222.71875 197.496094 C 231.527344 199.875 240.078125 202.808594 248.375 206.378906 C 258.117188 210.585938 268.199219 214.242188 276.324219 221.511719 C 277.261719 222.359375 278.242188 223.464844 277.304688 224.613281 C 276.324219 225.847656 275.050781 225.082031 274.113281 224.148438 C 265.5625 215.859375 254.203125 212.753906 243.992188 207.484375 C 234.121094 202.382812 223.273438 200.769531 212.636719 198.34375 C 208.9375 197.496094 205.023438 198.003906 201.234375 198.769531 C 199.746094 199.066406 196.980469 200.214844 196.554688 197.792969 C 196.085938 195.070312 199.277344 196.21875 200.683594 195.328125 C 201.109375 195.03125 201.832031 195.15625 203.703125 194.859375 Z M 203.703125 194.859375 " fill-opacity="1" fill-rule="nonzero"/><path fill="#603813" d="M 239.355469 152.140625 C 232.847656 155.625 225.230469 153.371094 218.890625 156.816406 C 218.125 157.242188 217.359375 156.773438 216.976562 156.050781 C 216.507812 155.160156 217.105469 154.777344 217.828125 154.308594 C 220.253906 152.691406 222.71875 152.652344 225.65625 152.308594 C 231.953125 151.628906 238.292969 151.375 244.589844 150.566406 C 249.097656 149.972656 253.609375 150.652344 258.117188 151.671875 C 263.816406 152.949219 269.773438 153.203125 275.433594 154.605469 C 284.238281 156.730469 292.578125 160.046875 299.042969 166.847656 C 301.128906 169.015625 303.300781 171.097656 306.320312 171.992188 C 307.851562 172.414062 308.320312 173.820312 308.617188 175.179688 C 308.703125 175.476562 308.234375 176.242188 308.0625 176.242188 C 306.703125 176.199219 305.46875 175.773438 304.449219 174.667969 C 293.386719 162.980469 279.644531 157.242188 263.777344 154.777344 C 258.542969 153.96875 252.96875 154.394531 247.738281 152.269531 C 245.3125 151.164062 242.121094 153.246094 239.355469 152.140625 Z M 239.355469 152.140625 " fill-opacity="1" fill-rule="nonzero"/><path fill="#603813" d="M 206.339844 182.957031 C 208.722656 180.152344 211.574219 180.320312 214.976562 180.066406 C 225.65625 179.21875 235.867188 181.46875 246.164062 183.46875 C 254.796875 185.125 262.625 189.164062 270.539062 192.863281 C 277.09375 195.964844 283.046875 199.960938 288.707031 204.464844 C 289.683594 205.230469 291.046875 206.039062 289.984375 207.355469 C 289.34375 208.164062 287.984375 207.738281 287.175781 206.929688 C 279.390625 199.238281 269.605469 194.773438 259.820312 190.355469 C 249.226562 185.550781 237.910156 184.019531 226.464844 183 C 222.636719 182.660156 218.765625 183.210938 214.976562 182.363281 C 213.957031 182.148438 212.679688 182.277344 212 183.210938 C 209.914062 186.144531 208.214844 184.148438 206.339844 182.957031 Z M 206.339844 182.957031 " fill-opacity="1" fill-rule="nonzero"/><path fill="#603813" d="M 290.960938 185.550781 C 287.261719 185.890625 285.601562 182.914062 283.347656 181.597656 C 272.835938 175.476562 261.734375 172.375 249.566406 171.480469 C 244.671875 171.097656 239.609375 170.332031 234.632812 169.441406 C 231.058594 168.804688 227.570312 168.546875 224.210938 170.929688 C 221.828125 172.585938 218.976562 171.90625 215.742188 170.289062 C 222.082031 167.867188 227.867188 167.019531 233.996094 167.230469 C 243.269531 167.570312 252.375 169.226562 261.351562 171.097656 C 271.519531 173.222656 281.347656 176.921875 289.726562 183.46875 C 290.238281 183.808594 290.40625 184.617188 290.960938 185.550781 Z M 290.960938 185.550781 " fill-opacity="1" fill-rule="nonzero"/></svg>